# xmcd CD database file
#
# Track frame offsets:
#	150
#	9900
#	27361
#	44374
#	63518
#	84028
#	95574
#	110631
#	122092
#	135971
#	155297
#
# Disc length: 2288 seconds
#
# Revision: 0
# Processed by: cddbd v1.5.2PL0 Copyright (c) Steve Scherf et al.
# Submitted via: CDex 1.51
#
DISCID=7e08ee0b
DTITLE=D'Lompekréimer - Stëmm vun der Strooss
DYEAR=2010
DGENRE=Blues
TTITLE0=Intro
TTITLE1=D'Stëmm vun der Strooss
TTITLE2=Den aale knéckege Mann
TTITLE3=Böhmeschen Danz/Muineiras
TTITLE4=Den Jack
TTITLE5=Mon Père m'envoya au marché/Nei Maclotte
TTITLE6=Rommelpott
TTITLE7=D'Pierele vum Da
TTITLE8=Vagabond
TTITLE9=EGO!
TTITLE10=Lompenuarm
EXTD=YEAR: 2010
EXTT0=
EXTT1=
EXTT2=
EXTT3=
EXTT4=
EXTT5=
EXTT6=
EXTT7=
EXTT8=
EXTT9=
EXTT10=
PLAYORDER=
